grf
version=1
nRows=19
nColumns=37
inDegrees=no
endheader
time	ground_force_1_vx	ground_force_1_vy	ground_force_1_vz	ground_force_1_px	ground_force_1_py	ground_force_1_pz	ground_moment_1_mx	ground_moment_1_my	ground_moment_1_mz	ground_force_2_vx	ground_force_2_vy	ground_force_2_vz	ground_force_2_px	ground_force_2_py	ground_force_2_pz	ground_moment_2_mx	ground_moment_2_my	ground_moment_2_mz	ground_force_3_vx	ground_force_3_vy	ground_force_3_vz	ground_force_3_px	ground_force_3_py	ground_force_3_pz	ground_moment_3_mx	ground_moment_3_my	ground_moment_3_mz	ground_force_4_vx	ground_force_4_vy	ground_force_4_vz	ground_force_4_px	ground_force_4_py	ground_force_4_pz	ground_moment_4_mx	ground_moment_4_my	ground_moment_4_mz
      4.33000000	      0.00000000	     -0.00000000	      0.00000000	      0.00000000	      0.00000000	      0.00000000	      0.00000000	      0.00000000	      0.00000000	    -16.07149315	     28.25433731	   -386.07952881	   -253.77124847	  -1090.70524448	      0.00000000	      0.00000000	      0.00000000	  11405.48453696	     16.17898914	    -24.92680500	   -390.45739746	   -273.47952738	   -722.57843550	      0.00000000	      0.00000000	     -0.00000000	  -6461.64452865	      0.00000000	     -0.00000000	      0.00000000	      0.00000000	      0.00000000	      0.00000000	      0.00000000	      0.00000000	      0.00000000
      4.34000000	      0.00000000	     -0.00000000	      0.00000000	      0.00000000	      0.00000000	      0.00000000	      0.00000000	      0.00000000	      0.00000000	    -15.63242912	     29.04965401	   -385.53662109	   -253.15927602	  -1092.33168182	      0.00000000	      0.00000000	      0.00000000	  11479.89582151	     16.83468405	    -25.53848414	   -392.28610229	   -273.50965196	   -721.39742597	      0.00000000	      0.00000000	     -0.00000000	  -6558.91394748	      0.00000000	     -0.00000000	      0.00000000	      0.00000000	      0.00000000	      0.00000000	      0.00000000	      0.00000000	      0.00000000
      4.35000000	      0.00000000	     -0.00000000	      0.00000000	      0.00000000	      0.00000000	      0.00000000	      0.00000000	      0.00000000	      0.00000000	    -15.44035721	     29.95474815	   -384.25976562	   -253.53026568	  -1092.71124473	      0.00000000	      0.00000000	      0.00000000	  11554.38157370	     15.87922824	    -25.89192148	   -390.94177246	   -273.42891887	   -722.94933747	      0.00000000	      0.00000000	     -0.00000000	  -6603.34589234	      0.00000000	     -0.00000000	      0.00000000	      0.00000000	      0.00000000	      0.00000000	      0.00000000	      0.00000000	      0.00000000
      4.36000000	      0.00000000	     -0.00000000	      0.00000000	      0.00000000	      0.00000000	      0.00000000	      0.00000000	      0.00000000	      0.00000000	    -16.31851959	     30.22220421	   -380.78341675	   -251.58379007	  -1091.65069612	      0.00000000	      0.00000000	      0.00000000	  11576.60559485	     15.17647034	    -26.61796893	   -393.17199707	   -273.50629856	   -721.06815326	      0.00000000	      0.00000000	     -0.00000000	  -6637.99692181	      0.00000000	     -0.00000000	      0.00000000	      0.00000000	      0.00000000	      0.00000000	      0.00000000	      0.00000000	      0.00000000
      4.37000000	      0.00000000	     -0.00000000	      0.00000000	      0.00000000	      0.00000000	      0.00000000	      0.00000000	      0.00000000	      0.00000000	    -16.43594360	     30.15433121	   -384.20379639	   -252.06167127	  -1093.03467341	      0.00000000	      0.00000000	      0.00000000	  11695.06772968	     14.74696780	    -27.22396789	   -395.61633301	   -273.87560416	   -721.34411805	      0.00000000	      0.00000000	     -0.00000000	  -6878.40727085	      0.00000000	     -0.00000000	      0.00000000	      0.00000000	      0.00000000	      0.00000000	      0.00000000	      0.00000000	      0.00000000
      4.38000000	      0.00000000	     -0.00000000	      0.00000000	      0.00000000	      0.00000000	      0.00000000	      0.00000000	      0.00000000	      0.00000000	    -17.10698128	     30.64657974	   -384.09002686	   -251.61073528	  -1092.44072452	      0.00000000	      0.00000000	      0.00000000	  11678.56312109	     14.13328595	    -27.78614549	   -395.81137085	   -273.38633427	   -723.40440221	      0.00000000	     -0.00000000	     -0.00000000	  -6916.25105793	      0.00000000	     -0.00000000	      0.00000000	      0.00000000	      0.00000000	      0.00000000	      0.00000000	      0.00000000	      0.00000000
      4.39000000	      0.00000000	     -0.00000000	      0.00000000	      0.00000000	      0.00000000	      0.00000000	      0.00000000	      0.00000000	      0.00000000	    -18.57288551	     30.93545341	   -383.52487183	   -252.29230427	  -1091.82643626	      0.00000000	      0.00000000	      0.00000000	  11267.91878007	     13.48403685	    -28.07209324	   -398.46624756	   -273.23767284	   -721.97137940	      0.00000000	      0.00000000	     -0.00000000	  -7182.77441488	      0.00000000	     -0.00000000	      0.00000000	      0.00000000	      0.00000000	      0.00000000	      0.00000000	      0.00000000	      0.00000000
      4.40000000	      0.00000000	     -0.00000000	      0.00000000	      0.00000000	      0.00000000	      0.00000000	      0.00000000	      0.00000000	      0.00000000	    -18.63772011	     30.48259735	   -383.99304199	   -252.06526302	  -1092.63812045	      0.00000000	      0.00000000	      0.00000000	  11612.49948788	     12.76715126	    -28.36559789	   -401.09024048	   -273.29459429	   -721.23778662	      0.00000000	     -0.00000000	     -0.00000000	  -7348.76133456	      0.00000000	     -0.00000000	      0.00000000	      0.00000000	      0.00000000	      0.00000000	      0.00000000	      0.00000000	      0.00000000
      4.41000000	      0.00000000	     -0.00000000	      0.00000000	      0.00000000	      0.00000000	      0.00000000	      0.00000000	      0.00000000	      0.00000000	    -18.80037689	     30.79504585	   -386.08392334	   -252.46002031	  -1092.31338771	      0.00000000	      0.00000000	      0.00000000	  11461.67450948	     12.16792330	    -28.96227180	   -403.00683594	   -272.98403792	   -721.26011494	      0.00000000	      0.00000000	     -0.00000000	  -7461.09631289	      0.00000000	     -0.00000000	      0.00000000	      0.00000000	      0.00000000	      0.00000000	      0.00000000	      0.00000000	      0.00000000
      4.42000000	      0.00000000	     -0.00000000	      0.00000000	      0.00000000	      0.00000000	      0.00000000	      0.00000000	      0.00000000	      0.00000000	    -18.50366592	     29.99247742	   -385.99633789	   -252.95080646	  -1092.46415178	      0.00000000	      0.00000000	      0.00000000	  11495.99762929	     12.32345710	    -28.90311349	   -406.00558472	   -273.39987338	   -720.74575854	      0.00000000	      0.00000000	     -0.00000000	  -7584.40526939	      0.00000000	     -0.00000000	      0.00000000	      0.00000000	      0.00000000	      0.00000000	      0.00000000	      0.00000000	      0.00000000
      4.43000000	      0.00000000	     -0.00000000	      0.00000000	      0.00000000	      0.00000000	      0.00000000	      0.00000000	      0.00000000	      0.00000000	    -18.09474754	     29.93284225	   -383.84729004	   -252.56548164	  -1091.49581918	      0.00000000	      0.00000000	      0.00000000	  11253.66318723	     11.73947841	    -29.26400669	   -408.41983032	   -273.62253162	   -720.54472105	      0.00000000	      0.00000000	     -0.00000000	  -7732.83734937	      0.00000000	     -0.00000000	      0.00000000	      0.00000000	      0.00000000	      0.00000000	      0.00000000	      0.00000000	      0.00000000
      4.44000000	      0.00000000	     -0.00000000	      0.00000000	      0.00000000	      0.00000000	      0.00000000	      0.00000000	      0.00000000	      0.00000000	    -18.30326653	     29.66532516	   -385.90603638	   -254.12825929	  -1093.41446588	      0.00000000	      0.00000000	      0.00000000	  11125.53149306	     11.79853185	    -29.14615734	   -409.20568848	   -274.24503979	   -721.50311258	      0.00000000	     -0.00000000	     -0.00000000	  -7682.56329805	      0.00000000	     -0.00000000	      0.00000000	      0.00000000	      0.00000000	      0.00000000	      0.00000000	      0.00000000	      0.00000000
      4.45000000	      0.00000000	     -0.00000000	      0.00000000	      0.00000000	      0.00000000	      0.00000000	      0.00000000	      0.00000000	      0.00000000	    -17.67892456	     29.44124603	   -381.87805176	   -254.11111243	  -1090.36642410	      0.00000000	      0.00000000	      0.00000000	  11046.52998821	     11.99857841	    -28.90371809	   -410.71401978	   -274.01623269	   -720.30173436	      0.00000000	      0.00000000	     -0.00000000	  -7793.31453639	      0.00000000	     -0.00000000	      0.00000000	      0.00000000	      0.00000000	      0.00000000	      0.00000000	      0.00000000	      0.00000000
      4.46000000	      0.00000000	     -0.00000000	      0.00000000	      0.00000000	      0.00000000	      0.00000000	      0.00000000	      0.00000000	      0.00000000	    -16.96539116	     28.63392830	   -381.49526978	   -254.44592006	  -1091.95087553	      0.00000000	      0.00000000	      0.00000000	  10947.61887463	     12.13814197	    -28.86602508	   -409.81405640	   -274.55707991	   -720.41923220	      0.00000000	      0.00000000	     -0.00000000	  -7580.24891390	      0.00000000	     -0.00000000	      0.00000000	      0.00000000	      0.00000000	      0.00000000	      0.00000000	      0.00000000	      0.00000000
      4.47000000	      0.00000000	     -0.00000000	      0.00000000	      0.00000000	      0.00000000	      0.00000000	      0.00000000	      0.00000000	      0.00000000	    -16.69789124	     28.28917885	   -379.51480103	   -255.30430516	  -1091.97424103	      0.00000000	      0.00000000	      0.00000000	  10762.07170074	     12.58156526	    -28.68925205	   -407.58090210	   -274.73775341	   -722.03510476	      0.00000000	      0.00000000	     -0.00000000	  -7817.81582234	      0.00000000	     -0.00000000	      0.00000000	      0.00000000	      0.00000000	      0.00000000	      0.00000000	      0.00000000	      0.00000000
      4.48000000	      0.00000000	     -0.00000000	      0.00000000	      0.00000000	      0.00000000	      0.00000000	      0.00000000	      0.00000000	      0.00000000	    -15.81374454	     27.61478233	   -377.67333984	   -256.17216846	  -1090.54478167	      0.00000000	      0.00000000	      0.00000000	  10860.28226971	     12.58918132	    -28.40873065	   -410.22268677	   -275.05165295	   -721.53754257	      0.00000000	      0.00000000	     -0.00000000	  -7723.76017158	      0.00000000	     -0.00000000	      0.00000000	      0.00000000	      0.00000000	      0.00000000	      0.00000000	      0.00000000	      0.00000000
      4.49000000	      0.00000000	     -0.00000000	      0.00000000	      0.00000000	      0.00000000	      0.00000000	      0.00000000	      0.00000000	      0.00000000	    -15.36001492	     27.38899231	   -378.70275879	   -256.35561237	  -1091.65826718	      0.00000000	     -0.00000000	      0.00000000	  10757.29538113	     12.84741725	    -28.43958395	   -409.67800903	   -275.82317887	   -721.79758395	      0.00000000	      0.00000000	     -0.00000000	  -7778.11657498	      0.00000000	     -0.00000000	      0.00000000	      0.00000000	      0.00000000	      0.00000000	      0.00000000	      0.00000000	      0.00000000
      4.50000000	      0.00000000	     -0.00000000	      0.00000000	      0.00000000	      0.00000000	      0.00000000	      0.00000000	      0.00000000	      0.00000000	    -15.29641151	     26.62611389	   -376.52133179	   -257.32061151	  -1091.09094193	      0.00000000	      0.00000000	     -0.00000000	  10802.07748109	     12.84729232	    -28.44743459	   -409.26776123	   -275.92842219	   -721.36839820	      0.00000000	     -0.00000000	     -0.00000000	  -7753.55790128	      0.00000000	     -0.00000000	      0.00000000	      0.00000000	      0.00000000	      0.00000000	      0.00000000	      0.00000000	      0.00000000
      4.51000000	      0.00000000	     -0.00000000	      0.00000000	      0.00000000	      0.00000000	      0.00000000	      0.00000000	      0.00000000	      0.00000000	    -15.48242188	     26.01728821	   -376.13665771	   -257.36317863	  -1091.22753883	      0.00000000	     -0.00000000	      0.00000000	  10697.74889014	     12.52413693	    -28.34333720	   -408.79391479	   -276.00788384	   -722.25618754	      0.00000000	      0.00000000	     -0.00000000	  -7703.62334423	      0.00000000	     -0.00000000	      0.00000000	      0.00000000	      0.00000000	      0.00000000	      0.00000000	      0.00000000	      0.00000000
